<svg xmlns="http://www.w3.org/2000/svg" viewBox="0 0 200 200">
  <path d="M100,40c-33.1,0-60,26.9-60,60s26.9,60,60,60s60-26.9,60-60S133.1,40,100,40z M145,100c0,2.1-0.2,4.1-0.5,6.1 c-4.6,3.6-11.8,5.9-24.5,5.9c-12,0-17-2.1-20-4.1c-3,2-8,4.1-20,4.1c-12.7,0-19.9-2.3-24.5-5.9c-0.3-2-0.5-4-0.5-6.1 c0-17.7,11.3-32.5,27.3-37.4c-4.3,3.8-7.3,9.7-7.3,16.4c0,9.9,6.7,18,15,18s15-8.1,15-18c0-6.7-3-12.6-7.3-16.4 c16,4.9,27.3,19.7,27.3,37.4z" fill="#000"/>
  <text x="100" y="180" font-family="Arial, sans-serif" font-size="24" font-weight="bold" text-anchor="middle" letter-spacing="4" fill="#000">MAZDA</text>
</svg>
