<svg xmlns="http://www.w3.org/2000/svg" viewBox="0 0 200 200">
  <path d="M54.5,77c-2.3,6.8-3.6,14.1-3.6,21.7c0,7.6,1.4,14.8,3.6,21.6h11.9c-1.8-6.1-2.9-12.6-2.9-19.3c0-8.8,1.9-17,5.3-24H54.5z M145.5,77h-14.3c3.4,7,5.3,15.2,5.3,24c0,6.7-1.1,13.2-2.9,19.3h11.9c2.3-6.8,3.6-14.1,3.6-21.7C149.1,91.1,147.8,83.8,145.5,77z M100,24.1c-32.9,0-60.8,21.5-70.8,51.2h15.2c9-21.5,30.2-36.4,55.1-36.4c25,0,46.2,15.1,55.5,36.4h15.2C160.2,45.6,132.6,24.1,100,24.1z M100,175.9c32.6,0,60.2-21.5,70.1-51.2h-15.2c-9.3,21.3-30.5,36.4-55.5,36.4c-24.9,0-46.1-14.9-55.1-36.4H28.9C38.9,154.4,66.8,175.9,100,175.9z" fill="#000"/>
  <text x="100" y="108" font-family="Arial, sans-serif" font-size="28" font-weight="bold" text-anchor="middle" letter-spacing="2" fill="#000">NISSAN</text>
</svg>
